<mxfile host="app.diagrams.net" modified="2022-08-05T14:22:26.351Z" agent="5.0 (Windows NT 10.0; Win64; x64) AppleWebKit/537.36 (KHTML, like Gecko) Chrome/103.0.0.0 Safari/537.36" etag="X5x95CPAi3yJbwJt41Jl" version="20.2.2" type="github">
  <diagram id="HnsUmnxyyoC5caaP8r3z" name="Page-1">
    <mxGraphModel dx="1221" dy="1744" grid="1" gridSize="10" guides="1" tooltips="1" connect="1" arrows="1" fold="1" page="1" pageScale="1" pageWidth="850" pageHeight="1100" background="#F1FAEE" math="0" shadow="0">
      <root>
        <mxCell id="0" />
        <mxCell id="1" parent="0" />
        <mxCell id="r0t9PXp3FNk8ytaZ-MLT-5" style="edgeStyle=orthogonalEdgeStyle;rounded=0;orthogonalLoop=1;jettySize=auto;html=1;exitX=0.5;exitY=1;exitDx=0;exitDy=0;entryX=0.5;entryY=0;entryDx=0;entryDy=0;strokeColor=#457B9D;fontColor=#1D3557;labelBackgroundColor=#F1FAEE;" edge="1" parent="1" source="r0t9PXp3FNk8ytaZ-MLT-1" target="r0t9PXp3FNk8ytaZ-MLT-2">
          <mxGeometry relative="1" as="geometry" />
        </mxCell>
        <mxCell id="r0t9PXp3FNk8ytaZ-MLT-67" value="" style="edgeStyle=orthogonalEdgeStyle;rounded=0;orthogonalLoop=1;jettySize=auto;html=1;strokeColor=#457B9D;fontColor=#1D3557;labelBackgroundColor=#F1FAEE;" edge="1" parent="1" source="r0t9PXp3FNk8ytaZ-MLT-1" target="r0t9PXp3FNk8ytaZ-MLT-66">
          <mxGeometry relative="1" as="geometry" />
        </mxCell>
        <mxCell id="r0t9PXp3FNk8ytaZ-MLT-1" value="Categories" style="rounded=0;whiteSpace=wrap;html=1;fillColor=#A8DADC;strokeColor=#457B9D;fontColor=#1D3557;" vertex="1" parent="1">
          <mxGeometry x="350" y="40" width="120" height="60" as="geometry" />
        </mxCell>
        <mxCell id="r0t9PXp3FNk8ytaZ-MLT-7" style="edgeStyle=orthogonalEdgeStyle;rounded=0;orthogonalLoop=1;jettySize=auto;html=1;entryX=1;entryY=0.5;entryDx=0;entryDy=0;strokeColor=#457B9D;fontColor=#1D3557;labelBackgroundColor=#F1FAEE;" edge="1" parent="1" source="r0t9PXp3FNk8ytaZ-MLT-2" target="r0t9PXp3FNk8ytaZ-MLT-4">
          <mxGeometry relative="1" as="geometry" />
        </mxCell>
        <mxCell id="r0t9PXp3FNk8ytaZ-MLT-2" value="Vehicle Inspection&amp;nbsp;" style="rounded=0;whiteSpace=wrap;html=1;fillColor=#A8DADC;strokeColor=#457B9D;fontColor=#1D3557;" vertex="1" parent="1">
          <mxGeometry x="350" y="130" width="120" height="60" as="geometry" />
        </mxCell>
        <mxCell id="r0t9PXp3FNk8ytaZ-MLT-12" style="edgeStyle=orthogonalEdgeStyle;rounded=0;orthogonalLoop=1;jettySize=auto;html=1;exitX=0.5;exitY=1;exitDx=0;exitDy=0;entryX=0.5;entryY=0;entryDx=0;entryDy=0;strokeColor=#457B9D;fontColor=#1D3557;labelBackgroundColor=#F1FAEE;" edge="1" parent="1" source="r0t9PXp3FNk8ytaZ-MLT-4" target="r0t9PXp3FNk8ytaZ-MLT-8">
          <mxGeometry relative="1" as="geometry" />
        </mxCell>
        <mxCell id="r0t9PXp3FNk8ytaZ-MLT-4" value="Needs Inspection" style="rounded=0;whiteSpace=wrap;html=1;fillColor=#A8DADC;strokeColor=#457B9D;fontColor=#1D3557;" vertex="1" parent="1">
          <mxGeometry x="170" y="130" width="120" height="60" as="geometry" />
        </mxCell>
        <mxCell id="r0t9PXp3FNk8ytaZ-MLT-43" style="edgeStyle=orthogonalEdgeStyle;rounded=0;orthogonalLoop=1;jettySize=auto;html=1;exitX=0.5;exitY=1;exitDx=0;exitDy=0;entryX=0.5;entryY=0;entryDx=0;entryDy=0;strokeColor=#457B9D;fontColor=#1D3557;labelBackgroundColor=#F1FAEE;" edge="1" parent="1" source="r0t9PXp3FNk8ytaZ-MLT-8" target="r0t9PXp3FNk8ytaZ-MLT-9">
          <mxGeometry relative="1" as="geometry" />
        </mxCell>
        <mxCell id="r0t9PXp3FNk8ytaZ-MLT-8" value="List of vehicles displayed" style="rounded=0;whiteSpace=wrap;html=1;fillColor=#A8DADC;strokeColor=#457B9D;fontColor=#1D3557;" vertex="1" parent="1">
          <mxGeometry x="170" y="220" width="120" height="60" as="geometry" />
        </mxCell>
        <mxCell id="r0t9PXp3FNk8ytaZ-MLT-53" style="edgeStyle=orthogonalEdgeStyle;rounded=0;orthogonalLoop=1;jettySize=auto;html=1;exitX=0.5;exitY=1;exitDx=0;exitDy=0;entryX=0.475;entryY=-0.094;entryDx=0;entryDy=0;entryPerimeter=0;strokeColor=#457B9D;fontColor=#1D3557;labelBackgroundColor=#F1FAEE;" edge="1" parent="1" source="r0t9PXp3FNk8ytaZ-MLT-9" target="r0t9PXp3FNk8ytaZ-MLT-48">
          <mxGeometry relative="1" as="geometry" />
        </mxCell>
        <mxCell id="r0t9PXp3FNk8ytaZ-MLT-9" value="View Vehicle to be inspected&amp;nbsp;" style="rounded=0;whiteSpace=wrap;html=1;fillColor=#A8DADC;strokeColor=#457B9D;fontColor=#1D3557;" vertex="1" parent="1">
          <mxGeometry x="170" y="320" width="120" height="60" as="geometry" />
        </mxCell>
        <mxCell id="r0t9PXp3FNk8ytaZ-MLT-58" style="edgeStyle=orthogonalEdgeStyle;rounded=0;orthogonalLoop=1;jettySize=auto;html=1;entryX=0.5;entryY=0;entryDx=0;entryDy=0;strokeColor=#457B9D;fontColor=#1D3557;labelBackgroundColor=#F1FAEE;" edge="1" parent="1" source="r0t9PXp3FNk8ytaZ-MLT-10" target="r0t9PXp3FNk8ytaZ-MLT-14">
          <mxGeometry relative="1" as="geometry">
            <Array as="points">
              <mxPoint x="490" y="390" />
            </Array>
          </mxGeometry>
        </mxCell>
        <mxCell id="r0t9PXp3FNk8ytaZ-MLT-10" value="View All Tasks (My Jobs)" style="rounded=0;whiteSpace=wrap;html=1;fillColor=#A8DADC;strokeColor=#457B9D;fontColor=#1D3557;" vertex="1" parent="1">
          <mxGeometry x="425" y="310" width="120" height="60" as="geometry" />
        </mxCell>
        <mxCell id="r0t9PXp3FNk8ytaZ-MLT-59" style="edgeStyle=orthogonalEdgeStyle;rounded=0;orthogonalLoop=1;jettySize=auto;html=1;exitX=0.5;exitY=1;exitDx=0;exitDy=0;entryX=0.5;entryY=0;entryDx=0;entryDy=0;strokeColor=#457B9D;fontColor=#1D3557;labelBackgroundColor=#F1FAEE;" edge="1" parent="1" source="r0t9PXp3FNk8ytaZ-MLT-14" target="r0t9PXp3FNk8ytaZ-MLT-57">
          <mxGeometry relative="1" as="geometry" />
        </mxCell>
        <mxCell id="r0t9PXp3FNk8ytaZ-MLT-14" value="Prioritize the tasks based on timings" style="rounded=0;whiteSpace=wrap;html=1;fillColor=#A8DADC;strokeColor=#457B9D;fontColor=#1D3557;" vertex="1" parent="1">
          <mxGeometry x="429.41" y="400" width="120" height="60" as="geometry" />
        </mxCell>
        <mxCell id="r0t9PXp3FNk8ytaZ-MLT-23" value="" style="edgeStyle=orthogonalEdgeStyle;rounded=0;orthogonalLoop=1;jettySize=auto;html=1;strokeColor=#457B9D;fontColor=#1D3557;labelBackgroundColor=#F1FAEE;" edge="1" parent="1" source="r0t9PXp3FNk8ytaZ-MLT-20" target="r0t9PXp3FNk8ytaZ-MLT-22">
          <mxGeometry relative="1" as="geometry">
            <Array as="points">
              <mxPoint x="610" y="620" />
              <mxPoint x="610" y="620" />
            </Array>
          </mxGeometry>
        </mxCell>
        <mxCell id="r0t9PXp3FNk8ytaZ-MLT-20" value="Pre-Job hazards document checklist" style="shape=document;whiteSpace=wrap;html=1;boundedLbl=1;fillColor=#A8DADC;strokeColor=#457B9D;fontColor=#1D3557;" vertex="1" parent="1">
          <mxGeometry x="434.41" y="580" width="115" height="70" as="geometry" />
        </mxCell>
        <mxCell id="r0t9PXp3FNk8ytaZ-MLT-27" style="edgeStyle=orthogonalEdgeStyle;rounded=0;orthogonalLoop=1;jettySize=auto;html=1;entryX=0.47;entryY=0.911;entryDx=0;entryDy=0;entryPerimeter=0;strokeColor=#457B9D;fontColor=#1D3557;labelBackgroundColor=#F1FAEE;" edge="1" parent="1" source="r0t9PXp3FNk8ytaZ-MLT-22" target="r0t9PXp3FNk8ytaZ-MLT-20">
          <mxGeometry relative="1" as="geometry">
            <Array as="points">
              <mxPoint x="684.91" y="695" />
              <mxPoint x="485.91" y="695" />
            </Array>
          </mxGeometry>
        </mxCell>
        <mxCell id="r0t9PXp3FNk8ytaZ-MLT-62" style="edgeStyle=orthogonalEdgeStyle;rounded=0;orthogonalLoop=1;jettySize=auto;html=1;entryX=0;entryY=0.5;entryDx=0;entryDy=0;strokeColor=#457B9D;fontColor=#1D3557;labelBackgroundColor=#F1FAEE;" edge="1" parent="1" source="r0t9PXp3FNk8ytaZ-MLT-22" target="r0t9PXp3FNk8ytaZ-MLT-24">
          <mxGeometry relative="1" as="geometry" />
        </mxCell>
        <mxCell id="r0t9PXp3FNk8ytaZ-MLT-22" value="Signed?" style="rhombus;whiteSpace=wrap;html=1;fillColor=#A8DADC;strokeColor=#457B9D;fontColor=#1D3557;" vertex="1" parent="1">
          <mxGeometry x="644.41" y="580" width="80" height="80" as="geometry" />
        </mxCell>
        <mxCell id="r0t9PXp3FNk8ytaZ-MLT-63" style="edgeStyle=orthogonalEdgeStyle;rounded=0;orthogonalLoop=1;jettySize=auto;html=1;exitX=0.5;exitY=1;exitDx=0;exitDy=0;entryX=0.5;entryY=0;entryDx=0;entryDy=0;strokeColor=#457B9D;fontColor=#1D3557;labelBackgroundColor=#F1FAEE;" edge="1" parent="1" source="r0t9PXp3FNk8ytaZ-MLT-24" target="r0t9PXp3FNk8ytaZ-MLT-34">
          <mxGeometry relative="1" as="geometry" />
        </mxCell>
        <mxCell id="r0t9PXp3FNk8ytaZ-MLT-24" value="Checkin button enabled" style="whiteSpace=wrap;html=1;fillColor=#A8DADC;strokeColor=#457B9D;fontColor=#1D3557;" vertex="1" parent="1">
          <mxGeometry x="760" y="590" width="120" height="60" as="geometry" />
        </mxCell>
        <mxCell id="r0t9PXp3FNk8ytaZ-MLT-28" value="no" style="text;html=1;align=center;verticalAlign=middle;resizable=0;points=[];autosize=1;strokeColor=none;fillColor=none;fontColor=#1D3557;" vertex="1" parent="1">
          <mxGeometry x="593.91" y="670" width="40" height="30" as="geometry" />
        </mxCell>
        <mxCell id="r0t9PXp3FNk8ytaZ-MLT-29" value="Yes" style="text;html=1;align=center;verticalAlign=middle;resizable=0;points=[];autosize=1;strokeColor=none;fillColor=none;fontColor=#1D3557;" vertex="1" parent="1">
          <mxGeometry x="720" y="580" width="40" height="30" as="geometry" />
        </mxCell>
        <mxCell id="r0t9PXp3FNk8ytaZ-MLT-37" value="" style="edgeStyle=orthogonalEdgeStyle;rounded=0;orthogonalLoop=1;jettySize=auto;html=1;strokeColor=#457B9D;fontColor=#1D3557;labelBackgroundColor=#F1FAEE;" edge="1" parent="1" source="r0t9PXp3FNk8ytaZ-MLT-34" target="r0t9PXp3FNk8ytaZ-MLT-36">
          <mxGeometry relative="1" as="geometry" />
        </mxCell>
        <mxCell id="r0t9PXp3FNk8ytaZ-MLT-34" value="Employee starts the work." style="whiteSpace=wrap;html=1;fillColor=#A8DADC;strokeColor=#457B9D;fontColor=#1D3557;" vertex="1" parent="1">
          <mxGeometry x="760" y="700" width="120" height="60" as="geometry" />
        </mxCell>
        <mxCell id="r0t9PXp3FNk8ytaZ-MLT-64" style="edgeStyle=orthogonalEdgeStyle;rounded=0;orthogonalLoop=1;jettySize=auto;html=1;exitX=1;exitY=0.5;exitDx=0;exitDy=0;entryX=1;entryY=0.5;entryDx=0;entryDy=0;strokeColor=#457B9D;fontColor=#1D3557;labelBackgroundColor=#F1FAEE;" edge="1" parent="1" source="r0t9PXp3FNk8ytaZ-MLT-36" target="r0t9PXp3FNk8ytaZ-MLT-34">
          <mxGeometry relative="1" as="geometry">
            <Array as="points">
              <mxPoint x="920" y="845" />
              <mxPoint x="920" y="730" />
            </Array>
          </mxGeometry>
        </mxCell>
        <mxCell id="r0t9PXp3FNk8ytaZ-MLT-76" style="edgeStyle=orthogonalEdgeStyle;rounded=0;orthogonalLoop=1;jettySize=auto;html=1;exitX=0;exitY=0.5;exitDx=0;exitDy=0;entryX=1;entryY=0.5;entryDx=0;entryDy=0;fontColor=#1D3557;strokeColor=#457B9D;fillColor=#A8DADC;" edge="1" parent="1" source="r0t9PXp3FNk8ytaZ-MLT-36" target="r0t9PXp3FNk8ytaZ-MLT-75">
          <mxGeometry relative="1" as="geometry" />
        </mxCell>
        <mxCell id="r0t9PXp3FNk8ytaZ-MLT-36" value="Work completed?" style="rhombus;whiteSpace=wrap;html=1;fillColor=#A8DADC;strokeColor=#457B9D;fontColor=#1D3557;" vertex="1" parent="1">
          <mxGeometry x="774.75" y="805" width="90.5" height="80" as="geometry" />
        </mxCell>
        <mxCell id="r0t9PXp3FNk8ytaZ-MLT-41" value="" style="edgeStyle=orthogonalEdgeStyle;rounded=0;orthogonalLoop=1;jettySize=auto;html=1;strokeColor=#457B9D;fontColor=#1D3557;labelBackgroundColor=#F1FAEE;" edge="1" parent="1" source="r0t9PXp3FNk8ytaZ-MLT-38" target="r0t9PXp3FNk8ytaZ-MLT-40">
          <mxGeometry relative="1" as="geometry" />
        </mxCell>
        <mxCell id="r0t9PXp3FNk8ytaZ-MLT-38" value="Foreman assess the Employee and Rate." style="whiteSpace=wrap;html=1;fillColor=#A8DADC;strokeColor=#457B9D;fontColor=#1D3557;" vertex="1" parent="1">
          <mxGeometry x="400" y="815" width="120" height="60" as="geometry" />
        </mxCell>
        <mxCell id="r0t9PXp3FNk8ytaZ-MLT-40" value="Checkout" style="whiteSpace=wrap;html=1;fillColor=#A8DADC;strokeColor=#457B9D;fontColor=#1D3557;" vertex="1" parent="1">
          <mxGeometry x="200" y="815" width="120" height="60" as="geometry" />
        </mxCell>
        <mxCell id="r0t9PXp3FNk8ytaZ-MLT-49" style="edgeStyle=orthogonalEdgeStyle;rounded=0;orthogonalLoop=1;jettySize=auto;html=1;entryX=0;entryY=0.5;entryDx=0;entryDy=0;strokeColor=#457B9D;fontColor=#1D3557;labelBackgroundColor=#F1FAEE;" edge="1" parent="1" source="r0t9PXp3FNk8ytaZ-MLT-46" target="r0t9PXp3FNk8ytaZ-MLT-9">
          <mxGeometry relative="1" as="geometry">
            <Array as="points">
              <mxPoint x="130" y="530" />
              <mxPoint x="130" y="350" />
            </Array>
          </mxGeometry>
        </mxCell>
        <mxCell id="r0t9PXp3FNk8ytaZ-MLT-54" style="edgeStyle=orthogonalEdgeStyle;rounded=0;orthogonalLoop=1;jettySize=auto;html=1;entryX=0;entryY=0.5;entryDx=0;entryDy=0;strokeColor=#457B9D;fontColor=#1D3557;labelBackgroundColor=#F1FAEE;" edge="1" parent="1" source="r0t9PXp3FNk8ytaZ-MLT-46" target="r0t9PXp3FNk8ytaZ-MLT-10">
          <mxGeometry relative="1" as="geometry">
            <Array as="points">
              <mxPoint x="245" y="640" />
              <mxPoint x="383" y="640" />
              <mxPoint x="383" y="340" />
            </Array>
          </mxGeometry>
        </mxCell>
        <mxCell id="r0t9PXp3FNk8ytaZ-MLT-46" value="" style="swimlane;startSize=0;fillColor=#A8DADC;strokeColor=#457B9D;fontColor=#1D3557;" vertex="1" parent="1">
          <mxGeometry x="150" y="420" width="190" height="190" as="geometry" />
        </mxCell>
        <mxCell id="r0t9PXp3FNk8ytaZ-MLT-45" value="Chipper or towed" style="shape=document;whiteSpace=wrap;html=1;boundedLbl=1;fillColor=#A8DADC;strokeColor=#457B9D;fontColor=#1D3557;" vertex="1" parent="r0t9PXp3FNk8ytaZ-MLT-46">
          <mxGeometry x="20" y="50" width="120" height="80" as="geometry" />
        </mxCell>
        <mxCell id="r0t9PXp3FNk8ytaZ-MLT-44" value="Vehicle Inspection" style="shape=document;whiteSpace=wrap;html=1;boundedLbl=1;fillColor=#A8DADC;strokeColor=#457B9D;fontColor=#1D3557;" vertex="1" parent="r0t9PXp3FNk8ytaZ-MLT-46">
          <mxGeometry x="60" y="90" width="120" height="80" as="geometry" />
        </mxCell>
        <mxCell id="r0t9PXp3FNk8ytaZ-MLT-48" value="Post Trip Form" style="text;html=1;align=center;verticalAlign=middle;resizable=0;points=[];autosize=1;strokeColor=none;fillColor=none;fontColor=#1D3557;" vertex="1" parent="r0t9PXp3FNk8ytaZ-MLT-46">
          <mxGeometry x="30" width="100" height="30" as="geometry" />
        </mxCell>
        <mxCell id="r0t9PXp3FNk8ytaZ-MLT-50" value="no" style="text;html=1;align=center;verticalAlign=middle;resizable=0;points=[];autosize=1;strokeColor=none;fillColor=none;fontColor=#1D3557;" vertex="1" parent="1">
          <mxGeometry x="70" y="455" width="40" height="30" as="geometry" />
        </mxCell>
        <mxCell id="r0t9PXp3FNk8ytaZ-MLT-55" value="yes" style="text;html=1;align=center;verticalAlign=middle;resizable=0;points=[];autosize=1;strokeColor=none;fillColor=none;fontColor=#1D3557;" vertex="1" parent="1">
          <mxGeometry x="300" y="640" width="40" height="30" as="geometry" />
        </mxCell>
        <mxCell id="r0t9PXp3FNk8ytaZ-MLT-60" style="edgeStyle=orthogonalEdgeStyle;rounded=0;orthogonalLoop=1;jettySize=auto;html=1;exitX=0.5;exitY=1;exitDx=0;exitDy=0;entryX=0.5;entryY=0;entryDx=0;entryDy=0;strokeColor=#457B9D;fontColor=#1D3557;labelBackgroundColor=#F1FAEE;" edge="1" parent="1" source="r0t9PXp3FNk8ytaZ-MLT-57" target="r0t9PXp3FNk8ytaZ-MLT-20">
          <mxGeometry relative="1" as="geometry" />
        </mxCell>
        <mxCell id="r0t9PXp3FNk8ytaZ-MLT-57" value="Task Description and details provided by Client/ Manager" style="rounded=0;whiteSpace=wrap;html=1;fillColor=#A8DADC;strokeColor=#457B9D;fontColor=#1D3557;" vertex="1" parent="1">
          <mxGeometry x="430" y="500" width="120" height="60" as="geometry" />
        </mxCell>
        <mxCell id="r0t9PXp3FNk8ytaZ-MLT-65" value="no" style="text;html=1;align=center;verticalAlign=middle;resizable=0;points=[];autosize=1;strokeColor=none;fillColor=none;fontColor=#1D3557;" vertex="1" parent="1">
          <mxGeometry x="920" y="765" width="40" height="30" as="geometry" />
        </mxCell>
        <mxCell id="r0t9PXp3FNk8ytaZ-MLT-69" style="edgeStyle=orthogonalEdgeStyle;rounded=0;orthogonalLoop=1;jettySize=auto;html=1;entryX=1;entryY=0.5;entryDx=0;entryDy=0;strokeColor=#457B9D;fontColor=#1D3557;labelBackgroundColor=#F1FAEE;" edge="1" parent="1" source="r0t9PXp3FNk8ytaZ-MLT-66" target="r0t9PXp3FNk8ytaZ-MLT-57">
          <mxGeometry relative="1" as="geometry" />
        </mxCell>
        <mxCell id="r0t9PXp3FNk8ytaZ-MLT-71" value="" style="edgeStyle=orthogonalEdgeStyle;rounded=0;orthogonalLoop=1;jettySize=auto;html=1;strokeColor=#457B9D;fontColor=#1D3557;labelBackgroundColor=#F1FAEE;" edge="1" parent="1" source="r0t9PXp3FNk8ytaZ-MLT-66" target="r0t9PXp3FNk8ytaZ-MLT-70">
          <mxGeometry relative="1" as="geometry" />
        </mxCell>
        <mxCell id="r0t9PXp3FNk8ytaZ-MLT-66" value="Asset" style="whiteSpace=wrap;html=1;rounded=0;fillColor=#A8DADC;strokeColor=#457B9D;fontColor=#1D3557;" vertex="1" parent="1">
          <mxGeometry x="550" y="40" width="120" height="60" as="geometry" />
        </mxCell>
        <mxCell id="r0t9PXp3FNk8ytaZ-MLT-68" value="PRODUCTION" style="text;html=1;align=center;verticalAlign=middle;resizable=0;points=[];autosize=1;strokeColor=none;fillColor=none;fontColor=#1D3557;" vertex="1" parent="1">
          <mxGeometry x="360" y="-20" width="100" height="30" as="geometry" />
        </mxCell>
        <mxCell id="r0t9PXp3FNk8ytaZ-MLT-73" value="" style="edgeStyle=orthogonalEdgeStyle;rounded=0;orthogonalLoop=1;jettySize=auto;html=1;strokeColor=#457B9D;fontColor=#1D3557;labelBackgroundColor=#F1FAEE;" edge="1" parent="1" source="r0t9PXp3FNk8ytaZ-MLT-70" target="r0t9PXp3FNk8ytaZ-MLT-72">
          <mxGeometry relative="1" as="geometry" />
        </mxCell>
        <mxCell id="r0t9PXp3FNk8ytaZ-MLT-70" value="Return Assets?" style="rhombus;whiteSpace=wrap;html=1;rounded=0;fillColor=#A8DADC;strokeColor=#457B9D;fontColor=#1D3557;" vertex="1" parent="1">
          <mxGeometry x="770" y="30" width="80" height="80" as="geometry" />
        </mxCell>
        <mxCell id="r0t9PXp3FNk8ytaZ-MLT-72" value="Sent to Manager" style="whiteSpace=wrap;html=1;rounded=0;fillColor=#A8DADC;strokeColor=#457B9D;fontColor=#1D3557;" vertex="1" parent="1">
          <mxGeometry x="750" y="200" width="120" height="60" as="geometry" />
        </mxCell>
        <mxCell id="r0t9PXp3FNk8ytaZ-MLT-74" value="Yes" style="text;html=1;align=center;verticalAlign=middle;resizable=0;points=[];autosize=1;strokeColor=none;fillColor=none;fontColor=#1D3557;" vertex="1" parent="1">
          <mxGeometry x="820" y="105" width="40" height="30" as="geometry" />
        </mxCell>
        <mxCell id="r0t9PXp3FNk8ytaZ-MLT-77" style="edgeStyle=orthogonalEdgeStyle;rounded=0;orthogonalLoop=1;jettySize=auto;html=1;exitX=0;exitY=0.5;exitDx=0;exitDy=0;entryX=1;entryY=0.5;entryDx=0;entryDy=0;fontColor=#1D3557;strokeColor=#457B9D;fillColor=#A8DADC;" edge="1" parent="1" source="r0t9PXp3FNk8ytaZ-MLT-75" target="r0t9PXp3FNk8ytaZ-MLT-38">
          <mxGeometry relative="1" as="geometry" />
        </mxCell>
        <mxCell id="r0t9PXp3FNk8ytaZ-MLT-75" value="Completed Job pictures" style="rounded=0;whiteSpace=wrap;html=1;fontColor=#1D3557;strokeColor=#457B9D;fillColor=#A8DADC;" vertex="1" parent="1">
          <mxGeometry x="604.4100000000001" y="815" width="120" height="60" as="geometry" />
        </mxCell>
      </root>
    </mxGraphModel>
  </diagram>
</mxfile>
